<svg width="81" height="66" viewBox="0 0 81 66" fill="none" xmlns="http://www.w3.org/2000/svg">
<path d="M69.5 9L81 6V42H75V38.5L51 15C46.5 15.8333 36.3 17.6 31.5 18C26.7 18.4 24.5 13.1667 24 10.5L51 0L69.5 9Z" fill="#FF6B6B"/>
<path d="M30 1V0H0V36H5L33.5 65C34.8333 65.3333 38 65.7 40 64.5C42 63.3 42.5 60 42.5 58.5C43.8333 59 47 59.7 49 58.5C51 57.3 51.5 54.3333 51.5 53C53 53.5 56.4 54.1 58 52.5C59.6 50.9 60.3333 48.1667 60.5 47C62 47.3333 65.4 47.6 67 46C68.6 44.4 69.3333 42 69.5 41C63.3333 34.3333 50.4 21 48 21C45 21 35.5 24 30.5 24C26.5 24 24.5 22.6667 24 22C22 21.3333 18 18.1 18 10.5C18 2.9 26 1 30 1Z" fill="#FF6B6B"/>
</svg>
